<svg width="309" height="185" viewBox="0 0 309 185" fill="none" xmlns="http://www.w3.org/2000/svg">
<g clip-path="url(#clip0_26_99)">
<path d="M236.578 182.908C232.622 179.56 230.219 174.272 230.849 169.124C231.479 163.976 235.382 159.244 240.445 158.15C245.508 157.057 251.279 160.083 252.817 165.036C253.663 155.487 254.639 145.539 259.708 137.407C264.298 130.044 272.249 124.776 280.865 123.834C289.482 122.891 298.554 126.451 303.928 133.261C309.301 140.072 310.617 149.973 306.853 157.792C304.081 163.552 298.973 167.839 293.621 171.326C276.327 182.5 255.585 187.044 235.211 184.122L236.578 182.908Z" fill="#F2F2F2"/>
<path d="M295.407 126.648C288.297 132.447 281.775 138.933 275.934 146.012C266.793 157.052 259.397 169.43 254.001 182.715C253.606 183.684 255.178 184.106 255.569 183.148C264.396 161.557 278.488 142.527 296.556 127.799C297.367 127.137 296.211 125.992 295.407 126.648Z" fill="white"/>
<path d="M99.4721 181.998C104.906 177.401 108.206 170.137 107.341 163.067C106.475 155.996 101.114 149.495 94.1603 147.994C87.2064 146.492 79.2795 150.649 77.1674 157.451C76.005 144.336 74.6655 130.672 67.7026 119.503C61.3978 109.39 50.4779 102.154 38.6432 100.86C26.8084 99.5651 14.348 104.454 6.96709 113.809C-0.41381 123.163 -2.22099 136.762 2.9484 147.501C6.7565 155.413 13.7724 161.301 21.1233 166.09C44.5751 181.372 73.6672 187.746 101.349 183.666" fill="#F2F2F2"/>
<path d="M18.6703 104.726C28.4354 112.691 37.3939 121.599 45.4161 131.322C53.4396 141.034 60.5035 151.504 66.5084 162.582C69.8649 168.797 72.8801 175.19 75.5406 181.734C76.083 183.065 73.9246 183.644 73.3881 182.328C68.6758 170.792 62.8457 159.745 55.9815 149.347C49.1506 138.987 41.3323 129.315 32.6365 120.467C27.718 115.465 22.5287 110.738 17.0919 106.306C15.9775 105.397 17.5651 103.824 18.6703 104.726Z" fill="white"/>
<path d="M221.805 184.595H92.1672V51.395C92.1672 23.0556 115.19 0 143.49 0H170.483C198.782 0 221.805 23.0556 221.805 51.395V184.595Z" fill="#F2F2F2"/>
<path d="M194.812 184.595H92.1672V51.3949C92.1389 40.536 95.5726 29.9514 101.968 21.1824C102.204 20.8606 102.439 20.543 102.682 20.2288C105.776 16.1656 109.457 12.5872 113.605 9.61171C113.839 9.44099 114.074 9.27323 114.313 9.10546C117.784 6.70019 121.539 4.73392 125.491 3.25142C125.726 3.16233 125.965 3.07306 126.204 2.98744C129.779 1.70988 133.485 0.834761 137.253 0.378236C137.486 0.346278 137.726 0.321271 137.966 0.296264C141.638 -0.0969236 145.342 -0.0969236 149.014 0.296264C149.253 0.321271 149.493 0.346275 149.729 0.378578C153.497 0.835133 157.201 1.71015 160.775 2.98745C161.014 3.07307 161.253 3.16234 161.489 3.2516C165.393 4.7154 169.103 6.65233 172.537 9.01916C172.775 9.18328 173.014 9.35104 173.249 9.5188C175.574 11.1808 177.758 13.0323 179.779 15.0545C181.399 16.6765 182.909 18.4055 184.298 20.2299C184.54 20.543 184.775 20.8606 185.01 21.1819C191.406 29.951 194.84 40.5358 194.812 51.3949V184.595Z" fill="#CCCCCC"/>
<path d="M186.466 125.02C189.604 125.02 192.148 122.472 192.148 119.329C192.148 116.186 189.604 113.638 186.466 113.638C183.327 113.638 180.783 116.186 180.783 119.329C180.783 122.472 183.327 125.02 186.466 125.02Z" fill="#306BCE"/>
<path d="M211.185 180.605H206.831L204.759 163.786L211.186 163.787L211.185 180.605Z" fill="#FFB8B8"/>
<path d="M203.72 179.359H212.118V184.654H198.433C198.433 183.959 198.57 183.27 198.835 182.628C199.101 181.986 199.491 181.402 199.982 180.91C200.473 180.419 201.055 180.029 201.697 179.762C202.338 179.496 203.026 179.359 203.72 179.359Z" fill="#2F2E41"/>
<path d="M232.851 180.605H228.496L226.425 163.786L232.851 163.787L232.851 180.605Z" fill="#FFB8B8"/>
<path d="M225.386 179.359H233.784V184.654H220.099C220.099 183.959 220.235 183.27 220.501 182.628C220.767 181.986 221.156 181.402 221.647 180.91C222.138 180.419 222.721 180.029 223.363 179.762C224.004 179.496 224.692 179.359 225.386 179.359Z" fill="#2F2E41"/>
<path d="M189.342 120.456C189.028 119.994 188.82 119.469 188.732 118.917C188.643 118.366 188.676 117.801 188.829 117.264C188.982 116.727 189.25 116.23 189.616 115.808C189.981 115.386 190.434 115.049 190.944 114.821L205.746 73.966L213.029 77.9465L196.128 116.989C196.454 117.871 196.444 118.843 196.102 119.718C195.76 120.594 195.109 121.314 194.273 121.741C193.436 122.169 192.472 122.274 191.563 122.037C190.654 121.8 189.864 121.238 189.342 120.456Z" fill="#FFB8B8"/>
<path d="M230.626 128.133C230.142 127.855 229.725 127.474 229.404 127.018C229.083 126.561 228.866 126.039 228.768 125.489C228.67 124.939 228.694 124.375 228.837 123.835C228.981 123.295 229.241 122.793 229.599 122.365L225.013 79.1474L233.302 79.5266L235.208 122.037C235.887 122.687 236.303 123.564 236.379 124.501C236.456 125.439 236.186 126.371 235.621 127.123C235.056 127.874 234.236 128.392 233.315 128.578C232.395 128.764 231.438 128.606 230.626 128.133Z" fill="#FFB8B8"/>
<path d="M217.403 66.3986C222.221 66.3986 226.127 62.4875 226.127 57.6629C226.127 52.8382 222.221 48.9271 217.403 48.9271C212.585 48.9271 208.68 52.8382 208.68 57.6629C208.68 62.4875 212.585 66.3986 217.403 66.3986Z" fill="#FFB8B8"/>
<path d="M230.571 118.304H204.271L204.303 118.099C204.35 117.793 208.99 87.3549 205.568 77.3971C205.225 76.4185 205.255 75.3473 205.653 74.3897C206.051 73.4321 206.788 72.6558 207.724 72.2101C212.615 69.9034 222.004 67.0631 229.929 73.9562C231.095 74.9872 232.006 76.2758 232.589 77.72C233.172 79.1643 233.412 80.7246 233.289 82.2775L230.571 118.304Z" fill="#306BCE"/>
<path d="M209.322 91.8531L197.482 89.4476L203.032 76.2771C203.364 75.0014 204.188 73.9098 205.323 73.2416C206.458 72.5734 207.811 72.3832 209.085 72.7127C210.36 73.0422 211.452 73.8646 212.122 74.9993C212.792 76.1341 212.985 77.4887 212.659 78.7659L209.322 91.8531Z" fill="#306BCE"/>
<path d="M224.487 96.3195L223.775 79.9793C223.235 76.9077 224.991 74.0039 227.692 73.5293C230.393 73.0564 233.031 75.1868 233.573 78.281L236.248 93.5493L224.487 96.3195Z" fill="#306BCE"/>
<path d="M229.696 116.348C233.927 132.487 234.389 153.007 233.247 175.39L227.565 174.678L217.265 131.997L211.582 175.39L205.189 175.034C203.279 151.549 201.419 131.387 204.478 118.126L229.696 116.348Z" fill="#2F2E41"/>
<path d="M223.151 64.4141C221.524 66.15 218.501 65.2181 218.289 62.8465C218.273 62.6624 218.274 62.4771 218.293 62.2932C218.402 61.2427 219.008 60.289 218.863 59.1798C218.83 58.9037 218.728 58.6407 218.565 58.4155C217.268 56.6765 214.224 59.1933 213 57.619C212.249 56.6537 213.132 55.1339 212.556 54.055C211.796 52.631 209.544 53.3335 208.132 52.5536C206.562 51.686 206.656 49.2724 207.69 47.8044C208.951 46.0141 211.162 45.0588 213.345 44.9211C215.529 44.7834 217.697 45.3745 219.736 46.17C222.052 47.0739 224.348 48.3231 225.774 50.3626C227.507 52.8427 227.674 56.1771 226.807 59.0772C226.28 60.8414 224.48 62.9965 223.151 64.4141Z" fill="#2F2E41"/>
<path d="M298.338 184.824H36.1166C36.0047 184.824 35.8974 184.779 35.8184 184.699C35.7393 184.62 35.6949 184.513 35.6949 184.4C35.6949 184.288 35.7393 184.181 35.8184 184.101C35.8974 184.022 36.0047 183.977 36.1166 183.977H298.338C298.45 183.977 298.557 184.022 298.637 184.101C298.716 184.181 298.76 184.288 298.76 184.4C298.76 184.513 298.716 184.62 298.637 184.699C298.557 184.779 298.45 184.824 298.338 184.824Z" fill="#3F3D56"/>
<path d="M166.576 146.004H120.403C119.795 146.008 119.211 145.769 118.778 145.341C118.345 144.914 118.1 144.332 118.095 143.723V40.5168C118.1 39.9078 118.345 39.3256 118.778 38.8979C119.211 38.4701 119.795 38.2317 120.403 38.235H166.576C167.184 38.2317 167.769 38.4701 168.201 38.8979C168.634 39.3256 168.88 39.9078 168.885 40.5168V143.723C168.88 144.332 168.634 144.914 168.201 145.341C167.769 145.769 167.184 146.008 166.576 146.004Z" fill="white"/>
<path d="M168.885 71.6292H118.095V72.3405H168.885V71.6292Z" fill="#CCCCCC"/>
<path d="M169.062 112.215H118.272V112.927H169.062V112.215Z" fill="#CCCCCC"/>
<path d="M134.788 38.235H134.078V146.36H134.788V38.235Z" fill="#CCCCCC"/>
<path d="M152.547 38.235H151.836V146.36H152.547V38.235Z" fill="#CCCCCC"/>
</g>
<defs>
<clipPath id="clip0_26_99">
<rect width="309" height="185" fill="white"/>
</clipPath>
</defs>
</svg>
